# xmcd
#
# Track frame offsets:
#	150
#	16440
#	30680
#	47418
#	61535
#	80670
#	93842
#	112020
#	132820
#	148633
#
# Disc length: 2177 seconds
#
# Revision: 0
# Processed by: cddbd v1.4PL0 Copyright (c) Steve Scherf et al.
# Submitted via: EasyCDDAExtractor 5.0.5.1
#
DISCID=79087f0a
DTITLE=Vince Gill - When I Call Your Name
DYEAR=1989
DGENRE=Country
TTITLE0=Never Alone
TTITLE1=Sight For Sore Eyes
TTITLE2=Oh Girl (You Know Where To Find Me)
TTITLE3=Oklahoma Swing (with Reba McEntire)
TTITLE4=When I Call Your Name
TTITLE5=Ridin' The Rodeo
TTITLE6=Never Knew Lonely
TTITLE7=We Won't Dance
TTITLE8=We Could Have Been
TTITLE9=Rita Ballou
EXTD=
EXTT0=
EXTT1=
EXTT2=
EXTT3=
EXTT4=
EXTT5=
EXTT6=
EXTT7=
EXTT8=
EXTT9=
PLAYORDER=
